<svg width="32" height="31" viewBox="0 0 32 31" fill="none" xmlns="http://www.w3.org/2000/svg">
<path d="M28.3142 20.1587C28.1513 19.6281 27.8751 19.13 27.477 18.7119C26.4017 17.589 24.7645 17.2947 23.4539 17.9347C23.4434 17.9366 23.4376 17.9319 23.4253 17.9347C21.9442 18.6005 19.6269 17.2013 18.4431 16.8175C17.7935 16.607 17.202 16.1513 16.6325 15.7465C17.5316 15.8051 18.4783 16.288 18.9183 16.5175C19.004 16.5613 19.0783 16.5213 19.0288 16.4613C18.625 15.9894 18.2917 15.5503 18.0916 15.136L19.2307 16.1727L19.3869 16.0022L17.9259 14.6726C17.8992 14.5574 17.8896 14.4445 17.8935 14.3321L19.5403 15.8313L19.6955 15.6608L17.9354 14.0602C17.9554 13.9878 17.983 13.9158 18.0173 13.8444L19.8403 15.5017L19.9965 15.3307L18.1393 13.643C18.1831 13.582 18.2297 13.5239 18.284 13.4635L20.1508 15.1612L20.3061 14.9907L18.4383 13.2925C18.4831 13.243 18.5354 13.1863 18.5945 13.1221L20.4613 14.8198L20.6175 14.6502L18.7508 12.9511C18.7945 12.9025 18.8451 12.8477 18.8945 12.7925L20.7613 14.4912L20.9165 14.3207L19.0498 12.6225C19.0908 12.5768 19.1335 12.5301 19.1774 12.4801L21.0442 14.1793L21.1995 14.0088L19.3326 12.3106C19.3832 12.254 19.4346 12.1973 19.4879 12.1401L21.3547 13.8388L21.509 13.6683L19.6423 11.9692C19.6908 11.9173 19.7384 11.8649 19.787 11.8101L21.6538 13.5083L21.809 13.3373L19.9413 11.6415C19.9917 11.5848 20.0423 11.5281 20.0956 11.4705L21.9624 13.1687L22.1167 12.9992L20.2499 11.301C20.3014 11.2443 20.3528 11.1881 20.4061 11.1305L22.2729 12.8292L22.4272 12.6587L20.5614 10.9595C20.61 10.9081 20.6576 10.8553 20.7052 10.8019L22.572 12.4996L22.7263 12.3292L20.8596 10.631C20.8977 10.59 20.9357 10.5481 20.9719 10.5081L22.8387 12.2063L22.9939 12.0353L21.1272 10.3376C21.1795 10.2799 21.2309 10.2233 21.2824 10.1666L23.1492 11.8648L23.3054 11.6943L21.4386 9.99609C21.4863 9.94324 21.5348 9.89086 21.5834 9.83705L23.4502 11.5362L23.6045 11.3652L21.7377 9.66749C21.7892 9.61085 21.8406 9.55416 21.8929 9.4965L23.7598 11.1956L23.9131 11.0252L22.0482 9.32412C22.1005 9.26748 22.1511 9.20983 22.2044 9.15313L24.0712 10.8523L24.2255 10.6818L22.3587 8.98267C22.4083 8.9303 22.4559 8.87648 22.5035 8.82363L24.3703 10.5218L24.5265 10.3514L22.6587 8.65317C22.6997 8.60746 22.7406 8.56218 22.7826 8.51743L24.6493 10.2156L24.8046 10.0446L22.9378 8.34692C22.9854 8.29497 23.033 8.24163 23.0807 8.18883L24.9474 9.88702L25.1027 9.71603L23.2359 8.01827C23.2787 7.97112 23.3216 7.92349 23.3645 7.87682L25.2313 9.57549L25.3865 9.40503L23.5197 7.70589C23.5711 7.64924 23.6235 7.59207 23.675 7.53633L25.5418 9.23409L25.6961 9.06363L23.8293 7.36545C23.8788 7.31211 23.9274 7.2583 23.9741 7.20683L25.8409 8.90459L25.9961 8.73408L24.1293 7.03589C24.1817 6.97733 24.2331 6.92207 24.2845 6.86543L26.1513 8.56458L26.3056 8.39359L24.4389 6.69684C24.4922 6.63822 24.5436 6.58062 24.5951 6.52585L26.4619 8.22403L26.6162 8.05304L24.7513 6.35528C24.8008 6.30051 24.8484 6.24813 24.8951 6.19624L26.7619 7.89394L26.9171 7.72439L25.0504 6.02573C25.0904 5.98242 25.1265 5.94242 25.1627 5.90241L27.0295 7.6006L27.1847 7.43105L25.317 5.73094C25.3741 5.66854 25.4255 5.6119 25.4722 5.56043L27.339 7.25819L27.4942 7.08773L25.6274 5.39056C25.7074 5.30197 25.753 5.25199 25.753 5.25199C25.7597 5.24533 25.7654 5.23962 25.7721 5.23199L27.6389 6.93066L27.7932 6.7602L25.9264 5.06202C25.9797 5.0034 26.0321 4.94724 26.0826 4.8915L27.9494 6.59017L28.1047 6.42067L26.2378 4.72152C26.2921 4.66104 26.3435 4.60387 26.3931 4.55197L28.2599 6.25016L28.4161 6.07917L26.5493 4.38146C26.6055 4.32007 26.6522 4.26812 26.6931 4.22241L28.5599 5.92018L28.7151 5.75062L26.8502 4.05382C26.8921 4.00481 26.9341 3.96193 26.9779 3.92193L28.8371 5.61302L28.9932 5.44251L27.1665 3.78144C27.2388 3.73573 27.3132 3.69952 27.3875 3.67146L29.1476 5.27295L29.3038 5.10292L27.656 3.60378C27.7684 3.58949 27.8808 3.58853 27.998 3.60282L29.459 4.93246L29.6143 4.76147L28.4752 3.72475C28.8962 3.88 29.3514 4.16097 29.8467 4.50717C29.9134 4.55384 29.981 4.5005 29.9286 4.41954C28.9238 2.87373 26.7817 2.40609 25.9474 3.32233C25.7702 3.51802 25.3883 3.93665 24.8987 4.4748C24.8987 4.4748 21.8509 7.82498 19.6308 10.2661C19.5384 10.3666 19.447 10.4681 19.3584 10.5657C18.4431 11.5705 17.7078 12.3786 17.4516 12.6596L15.2948 15.0317C15.2824 15.0288 15.2695 15.0216 15.2567 15.0188C15.1952 15.005 15.0843 14.9622 14.929 14.8959L8.32903 0.893616L11.9464 13.1296C11.9464 13.1296 11.9778 13.2439 12.0293 13.443C7.57423 11.1019 0.600941 6.62921 0.600941 6.62921C0.600941 6.62921 12.4431 16.9708 12.8684 17.3175C12.886 17.4185 12.9113 17.5204 12.9355 17.6223L4.73409 26.6363L4.99554 26.8744L13.1675 18.3957C13.899 20.4482 15.3757 22.5979 13.828 23.6951C13.8242 23.7018 13.828 23.7085 13.8252 23.7161C12.4303 24.6961 12.126 26.7677 13.1718 28.4135C14.2457 30.1041 16.3315 30.7089 17.823 29.7622C18.7393 29.1802 19.1946 28.002 19.5527 26.8687C19.247 25.9581 18.9946 25.6305 18.5812 24.979C18.3107 24.5533 17.9755 24.1979 17.6021 23.9161C16.7926 23.1464 14.4238 17.4004 14.6658 16.8641C17.5536 16.8213 21.2434 19.0672 21.6634 21.1559C21.6672 21.1559 21.6748 21.1502 21.6786 21.1482C21.7491 21.9549 22.0787 22.7197 22.6558 23.3227C23.8178 24.537 25.6437 24.7961 26.9933 23.9389C27.1703 23.8266 27.337 23.696 27.4885 23.5503C28.039 23.0246 28.36 22.3313 28.4457 21.575C28.76 21.4635 29.2153 21.3521 29.6467 21.4493C31.2411 21.8655 31.6717 20.553 31.704 20.1425C31.7364 19.7539 29.4314 20.9026 28.3142 20.1587ZM12.7651 15.8984C12.5594 15.576 12.6555 15.1455 12.9784 14.9398C13.3032 14.735 13.7313 14.8307 13.9361 15.1545C14.1418 15.4783 14.0466 15.9074 13.7228 16.1132C13.3999 16.3179 12.9698 16.2223 12.7651 15.8984ZM15.5924 24.2875C15.6734 24.2961 15.7543 24.3027 15.8343 24.3104C16.522 24.4199 17.2078 24.86 17.6573 25.5657C18.4069 26.7467 18.2174 28.2135 17.2363 28.8364C16.2553 29.4602 14.8462 29.0078 14.0971 27.8278C13.348 26.6477 13.5366 25.179 14.5176 24.5561C14.8424 24.3485 15.2138 24.2713 15.5924 24.2875ZM26.7341 22.7579C26.6331 22.8531 26.5245 22.9408 26.4084 23.0151C25.496 23.5922 24.2521 23.4037 23.4492 22.5636C23.0006 22.095 22.751 21.4902 22.7453 20.8644C22.7405 20.2482 22.9739 19.6854 23.4016 19.2758C23.5016 19.1805 23.6111 19.0939 23.7273 19.0205C24.6388 18.4424 25.8817 18.6319 26.6846 19.4691C27.1342 19.9387 27.3827 20.5444 27.3884 21.1702C27.3932 21.7845 27.1589 22.3502 26.7341 22.7579Z" fill="#E5E5E5"/>
</svg>
